<svg xmlns="http://www.w3.org/2000/svg" data-name="Layer 1" viewBox="0 0 122.61 122.88"><path d="M26.68 26.77h25.23v25.12H26.68zM35.67 0h-12.6a22.7 22.7 0 0 0-8.77 1.75 23.1 23.1 0 0 0-7.49 5 23.2 23.2 0 0 0-5 7.49A22.8 22.8 0 0 0 0 23.07v15.57h10.23V23.07a12.9 12.9 0 0 1 1-4.9A12.7 12.7 0 0 1 14 14a12.83 12.83 0 0 1 9.07-3.75h12.6zm63.87 0h-8.23v10.23h8.23a12.9 12.9 0 0 1 4.9 1 13.2 13.2 0 0 1 4.17 2.77l.35.36a13.1 13.1 0 0 1 2.45 3.82 12.7 12.7 0 0 1 1 4.89v15.57h10.23V23.07a22.95 22.95 0 0 0-6.42-15.93l-.37-.37a23.2 23.2 0 0 0-7.49-5A22.8 22.8 0 0 0 99.54 0m23.07 99.81V82.52h-10.23v17.29a12.7 12.7 0 0 1-1 4.89 13.1 13.1 0 0 1-2.8 4.17 12.8 12.8 0 0 1-9.06 3.78h-8.21v10.23h8.23a23 23 0 0 0 16.29-6.78 23.3 23.3 0 0 0 5-7.49 23 23 0 0 0 1.75-8.8Zm-99.54 23.07h12.6v-10.23h-12.6a12.8 12.8 0 0 1-9.07-3.78l-.26-.24a12.8 12.8 0 0 1-2.61-4.08 12.7 12.7 0 0 1-.91-4.74V82.52H0v17.29a22.6 22.6 0 0 0 1.67 8.57 22.9 22.9 0 0 0 4.79 7.38l.31.35a23.2 23.2 0 0 0 7.5 5 22.8 22.8 0 0 0 8.8 1.75Zm66.52-33.1H96v6.33h-6.41zm-12.36 0h6.44v6H70.8V83.47H77v-6.25h6.34V64.76h6.46v6.12h6.12v6.33H89.8v6.33H77.23v6.23ZM58.14 77.12h6.23v-6.33h-6v-6.33h6v-6.33h-6.13v6.33H51.8v-6.33h6.33v-18.8h6.43v18.79h6.23v6.33h6.13v-6.33h6.43v6.33h-6.12v6.33H70.8v12.46h-6.23v12.57h-6.43zm31.35-19h6.43v6.33h-6.43zm-50.24 0h6.43v6.33h-6.43zm-12.57 0h6.43v6.33h-6.43zm31.46-31.35h6.43v6.33h-6.43zM26.58 70.88H51.8V96H26.58zM32.71 77h13v12.91h-13zm38-50.22h25.21v25.11H70.7V26.77Zm6.13 6.1h13v12.91h-13V32.87Zm-44 0h13v12.91h-13V32.87Z" style="fill-rule:evenodd"/></svg>